PathFileType	4	(X/Y/Z)	TVC_41_BWA_02_walk_RCNL2025.trc
DataRate	CameraRate	NumFrames	NumMarkers	Units	OrigDataRate	OrigDataStartFrame	OrigNumFrames
100	100	12	27	mm	100	332	531
Frame#	Time	R_Shoulder			L_Shoulder			C7			J_Notch			R_Elbow			L_Elbow			R_Wrist			L_Wrist			R_Asis			L_Asis			R_Psis			L_Psis			Sacral			Thoracic			Sternum			R_Thigh_Lateral			R_Knee_Lateral			R_Shank_Lateral			R_Ankle_Lateral			R_Heel			R_Toe			L_Thigh_Lateral			L_Knee_Lateral			L_Shank_Lateral			L_Ankle_Lateral			L_Heel			L_Toe		
		X1	Y1	Z1	X2	Y2	Z2	X3	Y3	Z3	X4	Y4	Z4	X5	Y5	Z5	X6	Y6	Z6	X7	Y7	Z7	X8	Y8	Z8	X9	Y9	Z9	X10	Y10	Z10	X11	Y11	Z11	X12	Y12	Z12	X13	Y13	Z13	X14	Y14	Z14	X15	Y15	Z15	X16	Y16	Z16	X17	Y17	Z17	X18	Y18	Z18	X19	Y19	Z19	X20	Y20	Z20	X21	Y21	Z21	X22	Y22	Z22	X23	Y23	Z23	X24	Y24	Z24	X25	Y25	Z25	X26	Y26	Z26	X27	Y27	Z27
332	3.31000000	-710.003113	1222.229248	86.155342	-657.157410	1234.038818	-246.237045	-729.721436	1291.113647	-81.192848	-618.896057	1173.672485	-64.986588	-851.754395	961.614868	99.905960	-728.457275	952.462708	-322.914673	-665.398682	878.884003	90.984919	-631.075531	769.104034	-339.898865	-732.208740	843.523926	35.364658	-699.464539	820.925171	-204.083710	-879.915100	887.210815	-57.686893	-876.185303	867.872864	-146.849319	-878.050201	877.541840	-102.268106	-811.419495	1011.260010	-111.402565	-615.850647	989.295288	-79.760437	-809.998779	631.650269	114.335869	-818.459595	404.166748	14.890111	-851.524902	273.955872	74.319771	-863.251404	69.858780	-13.063561	-912.947937	46.114735	-58.881176	-752.412476	42.245140	-21.322203	-739.050110	579.740112	-324.002502	-627.791931	404.556366	-256.789551	-690.475830	285.054077	-318.556396	-757.428833	81.902962	-258.433228	-799.030334	62.204464	-213.335144	-641.404968	48.932415	-256.227539
333	3.32000000	-708.297729	1222.406860	84.432411	-654.216614	1233.260498	-247.781448	-727.227783	1290.972046	-83.108849	-616.742126	1173.333496	-66.253189	-850.847595	962.183167	98.461159	-725.635376	951.665833	-324.341187	-664.814301	879.020447	90.430296	-629.132446	767.830322	-341.190216	-731.110596	843.488953	34.551365	-697.203125	820.376648	-204.855682	-878.318298	887.111267	-59.243084	-874.187866	867.647217	-148.340607	-876.253082	877.379242	-103.791845	-809.412842	1011.154358	-112.957436	-614.063721	988.883972	-80.533905	-809.086426	631.645508	113.510689	-817.821655	404.110626	14.293265	-851.210266	274.013702	73.817703	-863.252869	69.824455	-13.195585	-912.744751	45.962563	-59.117550	-752.429016	42.223602	-21.333584	-737.444092	578.198669	-324.224304	-624.550415	404.549072	-256.252594	-684.259644	283.381073	-318.147705	-746.217224	78.479698	-258.189545	-787.645691	57.843895	-213.418350	-629.362366	48.336586	-254.918091
334	3.33000000	-706.645874	1222.655640	82.607147	-651.286987	1232.549805	-249.417496	-724.768555	1290.891602	-85.127708	-614.603943	1173.083862	-67.604790	-849.968872	962.776428	96.920135	-722.760437	950.896790	-325.814514	-664.258118	879.131989	89.880898	-627.140930	766.586700	-342.494873	-729.966248	843.497925	33.640980	-694.878052	819.846680	-205.682648	-876.661804	887.024902	-60.931068	-872.100220	867.443665	-149.966797	-874.381012	877.234283	-105.448933	-807.373291	1011.084045	-114.618874	-612.252502	988.563965	-81.386734	-808.051880	631.644470	112.572021	-817.131470	404.068481	13.605114	-850.871948	274.092896	73.242340	-863.241577	69.806061	-13.375173	-912.531921	45.823635	-59.396820	-752.445923	42.204903	-21.355635	-735.586060	576.669556	-324.454010	-621.448914	404.447876	-255.731796	-678.329102	281.752808	-317.766113	-736.105286	75.529526	-257.954468	-777.450684	54.157845	-213.515121	-618.619080	47.768139	-253.628754
335	3.34000000	-705.043274	1222.977173	80.686615	-648.368530	1231.918335	-251.137985	-722.342957	1290.878052	-87.240494	-612.480408	1172.928223	-69.036919	-849.104370	963.393311	95.278450	-719.832092	950.169678	-327.332367	-663.713257	879.220673	89.332634	-625.096252	765.389191	-343.810562	-728.772644	843.556519	32.631859	-692.486328	819.347839	-206.565781	-874.943726	886.959656	-62.750977	-869.920776	867.272644	-151.728683	-872.432251	877.116150	-107.239830	-805.299255	1011.055786	-116.383743	-610.415100	988.340942	-82.319252	-806.910645	631.657532	111.518265	-816.388184	404.048065	12.823892	-850.513855	274.203217	72.590508	-863.214966	69.812080	-13.609390	-912.312439	45.712471	-59.725502	-752.461609	42.189754	-21.387184	-733.453186	575.197571	-324.691956	-618.493164	404.262634	-255.230453	-672.713135	280.183441	-317.411774	-727.198181	73.046989	-257.723175	-768.563293	51.141140	-213.613480	-609.252380	47.205212	-252.370743
336	3.35000000	-703.485168	1223.373291	78.678131	-645.460938	1231.377930	-252.935516	-719.949768	1290.937256	-89.438095	-610.370300	1172.871216	-70.544968	-848.240417	964.034363	93.532028	-716.850342	949.499390	-328.893372	-663.163422	879.293304	88.777918	-622.993744	764.254608	-345.136108	-727.527405	843.670959	31.522951	-690.025757	818.894226	-207.506760	-873.162781	886.923950	-64.701706	-867.649414	867.145203	-153.625565	-870.406097	877.034576	-109.163635	-803.189636	1011.076538	-118.248375	-608.549988	988.220215	-83.331535	-805.680786	631.696167	110.348030	-815.591003	404.058014	11.948460	-850.139893	274.355499	71.858704	-863.170532	69.852074	-13.905468	-912.088257	45.644798	-60.111416	-752.474365	42.178993	-21.426907	-731.033142	573.826660	-324.943115	-615.691345	404.005127	-254.752335	-667.437317	278.685211	-317.085480	-719.557739	71.014259	-257.496674	-761.051575	48.767784	-213.709930	-601.294739	46.628506	-251.154816
337	3.36000000	-701.966492	1223.845825	76.589188	-642.563782	1230.939697	-254.802536	-717.587708	1291.075073	-91.711311	-608.272522	1172.916748	-72.124237	-847.363892	964.702209	91.677620	-713.815735	948.901001	-330.496674	-662.593384	879.361786	88.205387	-620.828796	763.200104	-346.471451	-726.228821	843.847351	30.313799	-687.494751	818.501221	-208.507690	-871.318604	886.926453	-66.780884	-865.287048	867.072937	-155.655167	-868.302826	876.999695	-111.218025	-801.043762	1011.153381	-120.208572	-606.656067	988.206665	-84.423409	-804.381897	631.772583	109.060135	-814.739441	404.107758	10.978397	-849.754211	274.561310	71.043129	-863.105774	69.936462	-14.270489	-911.859253	45.636696	-60.563698	-752.481750	42.173569	-21.473377	-728.325928	572.597473	-325.217041	-613.053772	403.688751	-254.301727	-662.523132	277.268402	-316.788757	-713.197327	69.401802	-257.280579	-754.927307	46.991711	-213.808395	-594.730225	46.023666	-249.992126
338	3.37000000	-700.481995	1224.396606	74.427444	-639.676636	1230.614502	-256.731415	-715.255188	1291.297241	-94.050842	-606.186035	1173.068115	-73.769905	-846.462280	965.401306	89.713158	-710.729614	948.389771	-332.142090	-661.988892	879.442719	87.599949	-618.597168	762.242920	-347.817612	-724.875793	844.092102	29.004559	-684.892578	818.184998	-209.571136	-869.411255	886.976074	-68.984848	-862.836121	867.067383	-157.813675	-866.123688	877.021729	-113.399261	-798.861572	1011.293518	-122.259628	-604.732727	988.304443	-85.594360	-803.033569	631.899475	107.653625	-813.832764	404.207153	9.914116	-849.360657	274.832520	70.139839	-863.018005	70.076187	-14.711032	-911.622375	45.703815	-61.092518	-752.481201	42.174545	-21.525133	-725.345276	571.544495	-325.527496	-610.592529	403.328003	-253.883331	-657.987854	275.941437	-316.523804	-708.080811	68.169189	-257.083344	-750.143799	45.749153	-213.917908	-589.494324	45.382778	-248.894485
339	3.38000000	-699.026306	1225.027344	72.200699	-636.799316	1230.412231	-258.714417	-712.950562	1291.608887	-96.447411	-604.109924	1173.328003	-75.477127	-845.524170	966.137268	87.638062	-707.594055	947.980347	-333.829926	-661.336884	879.556641	86.943184	-616.294708	761.400055	-349.176712	-723.467468	844.411194	27.595991	-682.219238	817.962158	-210.700012	-867.441528	887.081238	-71.308662	-860.300171	867.139587	-160.095749	-863.870850	877.110413	-115.702206	-796.643555	1011.503845	-124.396385	-602.779724	988.517029	-86.843590	-801.654175	632.089478	106.127922	-812.870239	404.366241	8.756997	-848.962585	275.180878	69.145035	-862.904907	70.282379	-15.232769	-911.371704	45.860786	-61.708538	-752.469788	42.183147	-21.580740	-722.119324	570.694763	-325.891632	-608.321045	402.938019	-253.502319	-653.844360	274.710724	-316.293518	-704.124756	67.267311	-256.914551	-746.598938	44.963062	-214.049881	-585.477295	44.704834	-247.873917
340	3.39000000	-697.594116	1225.739014	69.916801	-633.931946	1230.341553	-260.743988	-710.672302	1292.014771	-98.891747	-602.043396	1173.698242	-77.241005	-844.539185	966.916687	85.453323	-704.411987	947.686829	-335.560913	-660.625366	879.726959	86.214226	-613.917786	760.688019	-350.551865	-722.003540	844.810547	26.089472	-679.475891	817.849121	-211.897522	-865.410645	887.249756	-73.746231	-857.683716	867.299561	-162.494614	-861.547180	877.274658	-118.120422	-794.390686	1011.790649	-126.613297	-600.797485	988.846985	-88.169975	-800.259888	632.355042	104.483047	-811.850891	404.594849	7.509546	-848.562622	275.617676	68.055473	-862.763916	70.565933	-15.840042	-911.098450	46.120800	-62.422115	-752.444275	42.200741	-21.638851	-718.690369	570.065796	-326.328308	-606.253296	402.534119	-253.164291	-650.101257	273.580872	-316.101349	-701.206482	66.641960	-256.783081	-744.144958	44.549179	-214.215439	-582.533508	43.995399	-246.941589
341	3.40000000	-696.180359	1226.532471	67.583618	-631.075134	1230.410156	-262.812531	-708.419067	1292.518555	-101.374695	-599.985962	1174.179688	-79.056648	-843.498352	967.746460	83.161575	-701.187439	947.522034	-337.336090	-659.843475	879.978516	85.390965	-611.463165	760.122284	-351.947098	-720.483948	845.295349	24.486980	-676.664307	817.861389	-213.167007	-863.320496	887.488708	-76.290367	-854.992310	867.556152	-165.002289	-859.156403	877.522430	-120.646328	-792.104614	1012.159729	-128.904510	-598.786804	989.296082	-89.572098	-798.863892	632.708069	102.719864	-810.773254	404.902405	6.175514	-848.162476	276.153351	66.868942	-862.592468	70.937073	-16.535473	-910.791931	46.495419	-63.242371	-752.401428	42.228855	-21.698259	-715.112915	569.665283	-326.856232	-604.403381	402.131531	-252.875198	-646.762939	272.554901	-315.951233	-699.175903	66.238159	-256.696045	-742.603333	44.422657	-214.423065	-580.493530	43.265694	-246.106400
342	3.41000000	-694.780090	1227.407471	65.208984	-628.230164	1230.624023	-264.912781	-706.189819	1293.123169	-103.887245	-597.937500	1174.772339	-80.919197	-842.394165	968.633179	80.766930	-697.925171	947.497559	-339.156738	-658.981140	880.335815	84.451366	-608.928101	759.717224	-353.367279	-718.908691	845.870300	22.791117	-673.787354	818.013306	-214.511734	-861.173279	887.803772	-78.932961	-852.232422	867.916321	-167.609665	-856.702850	877.860046	-123.271313	-789.787476	1012.615662	-131.263916	-596.749023	989.864807	-91.048271	-797.475708	633.159485	100.840401	-809.635681	405.297455	4.759996	-847.762329	276.797058	65.584808	-862.387878	71.404877	-17.319637	-910.440369	46.994522	-64.176208	-752.337708	42.269131	-21.757977	-711.450562	569.491028	-327.491974	-602.784485	401.744904	-252.641296	-643.829773	271.634216	-315.847382	-697.869629	66.004044	-256.658173	-741.782043	44.503780	-214.677429	-579.178833	42.531097	-245.373901
343	3.42000000	-693.389099	1228.363037	62.800583	-625.398804	1230.987549	-267.037598	-703.983765	1293.830444	-106.420631	-595.898071	1175.474976	-82.823868	-841.220642	969.582581	78.274773	-694.630920	947.623047	-341.024292	-658.029205	880.821686	83.374702	-606.310364	759.485535	-354.817902	-717.277954	846.539062	21.005117	-670.848755	818.316956	-215.934723	-858.971741	888.199341	-81.665077	-849.411011	868.384888	-170.306778	-854.191376	878.292114	-125.985928	-787.442017	1013.162048	-133.685287	-594.685852	990.552734	-92.596558	-796.101013	633.718872	98.848160	-808.436035	405.787445	3.269462	-847.360962	277.556427	64.204453	-862.147034	71.976883	-18.190847	-910.032410	47.626480	-65.227386	-752.249756	42.323257	-21.817287	-707.771484	569.532349	-328.248138	-601.408630	401.388062	-252.468964	-641.298462	270.818756	-315.794250	-697.124756	65.893562	-256.671539	-741.492737	44.721874	-214.979141	-578.415283	41.809219	-244.745758
